<?xml version="1.0" encoding="UTF-8" standalone="no"?>
<!-- Created with Inkscape (http://www.inkscape.org/) -->

<svg
   xmlns:dc="http://purl.org/dc/elements/1.1/"
   xmlns:cc="http://creativecommons.org/ns#"
   xmlns:rdf="http://www.w3.org/1999/02/22-rdf-syntax-ns#"
   xmlns:svg="http://www.w3.org/2000/svg"
   xmlns="http://www.w3.org/2000/svg"
   xmlns:sodipodi="http://sodipodi.sourceforge.net/DTD/sodipodi-0.dtd"
   xmlns:inkscape="http://www.inkscape.org/namespaces/inkscape"
   width="534.36053"
   height="489.49951"
   id="svg3175"
   version="1.1"
   inkscape:version="0.48.0 r9654"
   sodipodi:docname="pycampus.svg">
  <defs
     id="defs3177" />
  <sodipodi:namedview
     id="base"
     pagecolor="#ffffff"
     bordercolor="#666666"
     borderopacity="1.0"
     inkscape:pageopacity="0.0"
     inkscape:pageshadow="2"
     inkscape:zoom="0.49497475"
     inkscape:cx="875.74465"
     inkscape:cy="256.07722"
     inkscape:document-units="px"
     inkscape:current-layer="layer1"
     showgrid="false"
     inkscape:window-width="1280"
     inkscape:window-height="725"
     inkscape:window-x="0"
     inkscape:window-y="25"
     inkscape:window-maximized="1"
     fit-margin-top="0"
     fit-margin-left="0"
     fit-margin-right="0"
     fit-margin-bottom="0" />
  <metadata
     id="metadata3180">
    <rdf:RDF>
      <cc:Work
         rdf:about="">
        <dc:format>image/svg+xml</dc:format>
        <dc:type
           rdf:resource="http://purl.org/dc/dcmitype/StillImage" />
        <dc:title />
      </cc:Work>
    </rdf:RDF>
  </metadata>
  <g
     inkscape:label="Layer 1"
     inkscape:groupmode="layer"
     id="layer1"
     transform="translate(-100.51526,-200.51073)">
    <rect
       style="color:#000000;fill:#324562;fill-opacity:1;fill-rule:evenodd;stroke:#000000;stroke-width:1px;stroke-linecap:butt;stroke-linejoin:miter;stroke-miterlimit:4;stroke-opacity:1;stroke-dasharray:none;stroke-dashoffset:0;marker:none;visibility:visible;display:inline;overflow:visible;enable-background:accumulate"
       id="rect3242"
       width="533.36053"
       height="488.49951"
       x="101.01526"
       y="201.01073" />
    <g
       id="g4200"
       style="fill:#ffffff"
       inkscape:export-filename="/home/karlisson/titulo.png"
       inkscape:export-xdpi="90.070015"
       inkscape:export-ydpi="90.070015"
       transform="matrix(1.3095287,0,0,1.3095794,113.43856,23.702309)">
      <path
         inkscape:export-ydpi="90"
         inkscape:export-xdpi="90"
         inkscape:export-filename="/home/karlisson/titulo.png"
         d="m 108.65641,394.16969 c 0,-11.04406 -3.14907,-16.71392 -9.44732,-17.02442 -2.50596,-0.11837 -4.952786,0.28089 -7.333133,1.20496 -1.899803,0.6801 -3.178657,1.35276 -3.851353,2.03287 l 0,26.36083 c 4.028751,2.52816 7.606685,3.70353 10.726206,3.5187 6.60129,-0.43611 9.9056,-5.7955 9.9056,-16.09294 z m 7.7693,0.45831 c 0,5.61072 -1.31581,10.26784 -3.96225,13.9714 -2.94955,4.1914 -7.03747,6.34994 -12.26376,6.4682 -3.9401,0.12579 -7.998454,-1.10881 -12.175096,-3.6961 l 0,23.95836 -6.756554,-2.40989 0,-53.18001 c 1.108869,-1.36018 2.535566,-2.52815 4.265359,-3.51871 4.021375,-2.34336 8.90767,-3.54832 14.658851,-3.60744 l 0.0961,0.096 c 5.25589,-0.0667 9.30687,2.09204 12.15291,6.46824 2.65382,4.01402 3.98442,9.15904 3.98442,15.44987 z"
         style="fill:#ffffff;fill-opacity:1"
         id="path46"
         inkscape:connector-curvature="0" />
      <path
         inkscape:export-ydpi="90"
         inkscape:export-xdpi="90"
         inkscape:export-filename="/home/karlisson/titulo.png"
         d="m 157.71891,410.35136 c 0,7.52534 -0.75398,12.73686 -2.26199,15.6347 -1.51545,2.89773 -4.39841,5.21152 -8.65639,6.93391 -3.45217,1.36018 -7.18527,2.09941 -11.19189,2.22507 l -1.11621,-4.25792 c 4.07314,-0.55444 6.94133,-1.10888 8.6046,-1.6633 3.27479,-1.10883 5.52202,-2.80905 6.75653,-5.08587 0.99057,-1.85545 1.47846,-5.39637 1.47846,-10.63746 l 0,-1.75935 c -4.62017,2.09935 -9.4621,3.1417 -14.52581,3.1417 -3.32652,0 -6.26125,-1.04235 -8.78944,-3.1417 -2.83861,-2.28424 -4.25792,-5.18203 -4.25792,-8.69334 l 0,-28.12022 6.75653,-2.31377 0,28.30501 c 0,3.02345 0.97578,5.35201 2.92733,6.9857 1.95157,1.63367 4.47973,2.41728 7.57712,2.35811 3.0973,-0.0666 6.41645,-1.26406 9.9426,-3.60738 l 0,-33.02132 6.75648,0 0,36.71743 z"
         style="fill:#ffffff;fill-opacity:1"
         id="path48"
         inkscape:connector-curvature="0" />
      <path
         inkscape:export-ydpi="90"
         inkscape:export-xdpi="90"
         inkscape:export-filename="/home/karlisson/titulo.png"
         d="m 184.09457,414.698 c -0.80576,0.0667 -1.54502,0.096 -2.22508,0.096 -3.82182,0 -6.80087,-0.90924 -8.92985,-2.73518 -2.1216,-1.82587 -3.18607,-4.34664 -3.18607,-7.56225 l 0,-26.6122 -4.62759,0 0,-4.25056 4.62759,0 0,-11.28801 6.74913,-2.40248 0,13.69049 7.59187,0 0,4.25056 -7.59187,0 0,26.42736 c 0,2.53554 0.68009,4.33188 2.04027,5.38158 1.16799,0.8649 3.02345,1.36017 5.5516,1.48586 l 0,3.51871 z"
         style="fill:#ffffff;fill-opacity:1"
         id="path50"
         inkscape:connector-curvature="0" />
      <path
         inkscape:export-ydpi="90"
         inkscape:export-xdpi="90"
         inkscape:export-filename="/home/karlisson/titulo.png"
         d="m 225.0034,414.14362 -6.75654,0 0,-26.07997 c 0,-2.65383 -0.62094,-4.93802 -1.85546,-6.84522 -1.42671,-2.15857 -3.40781,-3.23783 -5.95076,-3.23783 -3.09736,0 -6.97093,1.63368 -11.62067,4.90111 l 0,31.26191 -6.75654,0 0,-62.33905 6.75654,-2.129 0,28.39374 c 4.31709,-3.14173 9.03338,-4.71626 14.15621,-4.71626 3.57784,0 6.47562,1.20492 8.69328,3.60744 2.22512,2.40248 3.33394,5.39634 3.33394,8.9742 l 0,28.20893 0,0 z"
         style="fill:#ffffff;fill-opacity:1"
         id="path52"
         inkscape:connector-curvature="0" />
      <path
         inkscape:export-ydpi="90"
         inkscape:export-xdpi="90"
         inkscape:export-filename="/home/karlisson/titulo.png"
         d="m 260.91506,393.10518 c 0,-4.24314 -0.80576,-7.74711 -2.40989,-10.51919 -1.9072,-3.37826 -4.8715,-5.15983 -8.87812,-5.34462 -7.40702,0.42876 -11.10317,5.73642 -11.10317,15.90819 0,4.66451 0.76878,8.56024 2.32116,11.68718 1.98112,3.9844 4.95284,5.9508 8.91509,5.88422 7.43661,-0.0592 11.15493,-5.92859 11.15493,-17.61578 z m 7.39967,0.0445 c 0,6.03948 -1.54499,11.06618 -4.62757,15.08023 -3.39304,4.49449 -8.07975,6.74916 -14.06011,6.74916 -5.92859,0 -10.54873,-2.25467 -13.88269,-6.74916 -3.0234,-4.01405 -4.53144,-9.04075 -4.53144,-15.08023 0,-5.67726 1.6337,-10.4527 4.90107,-14.34104 3.4522,-4.12489 7.99105,-6.19472 13.60177,-6.19472 5.61072,0 10.17916,2.06983 13.69789,6.19472 3.26736,3.88834 4.90108,8.66378 4.90108,14.34104 z"
         style="fill:#ffffff;fill-opacity:1"
         id="path54"
         inkscape:connector-curvature="0" />
      <path
         inkscape:export-ydpi="90"
         inkscape:export-xdpi="90"
         inkscape:export-filename="/home/karlisson/titulo.png"
         d="m 307.05022,414.14362 -6.75654,0 0,-27.5584 c 0,-3.02348 -0.90923,-5.38157 -2.72772,-7.08181 -1.81851,-1.69281 -4.24318,-2.51338 -7.26663,-2.44685 -3.2082,0.059 -6.26124,1.10885 -9.15901,3.14171 l 0,33.94535 -6.75655,0 0,-34.78065 c 3.88837,-2.83122 7.46622,-4.67932 10.73359,-5.5442 3.08259,-0.80576 5.80294,-1.20496 8.14628,-1.20496 1.60415,0 3.11213,0.15504 4.53147,0.46573 2.65382,0.61352 4.81236,1.75194 6.47563,3.42259 1.85546,1.8481 2.77948,4.06576 2.77948,6.66047 l 0,30.98102 z"
         style="fill:#ffffff;fill-opacity:1"
         id="path56"
         inkscape:connector-curvature="0" />
    </g>
    <g
       transform="matrix(1.4023752,0,0,1.2180463,-112.85704,-136.69482)"
       style="font-size:37.84441376px;font-style:normal;font-variant:normal;font-weight:normal;font-stretch:normal;text-indent:0;text-align:start;text-decoration:none;line-height:125%;letter-spacing:0px;word-spacing:0px;text-transform:none;direction:ltr;block-progression:tb;writing-mode:lr-tb;text-anchor:start;color:#000000;fill:#ffff37;fill-opacity:1;fill-rule:nonzero;stroke:none;stroke-width:1px;marker:none;visibility:visible;display:inline;overflow:visible;enable-background:accumulate;font-family:a_Campus;-inkscape-font-specification:a_Campus"
       id="text3717">
      <path
         d="m 334.19171,611.79352 -4.65486,4.38995 -8.02301,0 -4.65487,-4.38995 0,-18.46807 4.65487,-4.38996 8.02301,0 4.65486,4.38996 0,3.55737 -4.65486,0 0,-2.19498 -1.3624,-1.36239 -5.29822,0 -1.36239,1.36239 0,15.74328 1.36239,1.3624 5.29822,0 1.3624,-1.3624 0,-2.19498 4.65486,0 0,3.55738"
         style="marker:none"
         id="path3412"
         inkscape:connector-curvature="0" />
      <path
         d="m 358.66286,616.18347 -8.43931,0 0,-4.38995 2.61127,0 -1.51378,-4.27642 -8.96912,0 -1.51378,4.27642 2.61126,0 0,4.38995 -8.4393,0 0,-4.38995 1.703,0 7.94732,-22.85803 4.31427,0 7.98517,22.85803 1.703,0 0,4.38995 m -8.66637,-12.41297 -3.14109,-9.30972 -0.0757,0 -3.10324,9.30972 6.32002,0"
         style="marker:none"
         id="path3414"
         inkscape:connector-curvature="0" />
      <path
         d="m 386.48382,616.18347 -8.85559,0 0,-4.73055 2.27066,0 0,-15.62974 -6.0551,10.70997 -1.74084,0 -6.05511,-10.70997 0,15.62974 2.27066,0 0,4.73055 -8.85559,0 0,-4.73055 2.15713,0 0,-18.12747 -2.15713,0 0,-4.38996 7.00122,0 6.50924,11.58039 6.50924,-11.58039 7.00121,0 0,4.38996 -2.15713,0 0,18.12747 2.15713,0 0,4.73055"
         style="marker:none"
         id="path3416"
         inkscape:connector-curvature="0" />
      <path
         d="m 406.60641,600.28882 -4.50349,4.20073 -7.03906,0 0,7.30397 2.83833,0 0,4.38995 -9.72601,0 0,-4.38995 2.34635,0 0,-18.46807 -2.34635,0 0,-4.38996 13.77537,0 4.65486,4.38996 0,6.96337 m -4.65486,-1.3624 0,-4.23858 -1.47594,-1.36239 -5.41175,0 0,6.96337 5.41175,0 1.47594,-1.3624"
         style="marker:none"
         id="path3418"
         inkscape:connector-curvature="0" />
      <path
         d="m 429.10787,593.32545 -2.15713,0 0,18.54376 -4.65487,4.31426 -7.83379,0 -4.65486,-4.31426 0,-18.54376 -2.15713,0 0,-4.38996 9.19619,0 0,4.38996 -2.3842,0 0,17.10567 1.32456,1.3624 5.14684,0 1.36239,-1.3624 0,-17.10567 -2.38419,0 0,-4.38996 9.19619,0 0,4.38996"
         style="marker:none"
         id="path3420"
         inkscape:connector-curvature="0" />
      <path
         d="m 448.08743,611.86921 -4.23857,4.31426 -8.25009,0 -4.54133,-4.27642 0,-3.67091 4.54133,0 0,2.19498 1.3624,1.3624 5.22253,0 1.3624,-1.3624 0,-4.57917 -1.3624,-1.3624 -6.81199,0 -4.31427,-4.20073 0,-7.03906 4.31427,-4.31427 8.40146,0 4.31426,4.31427 0,3.63306 -4.54133,0 0,-2.19498 -1.3624,-1.36239 -5.22253,0 -1.3624,1.36239 0,4.23858 1.3624,1.3624 6.58493,0 4.54133,4.20073 0,7.37966"
         style="marker:none"
         id="path3422"
         inkscape:connector-curvature="0" />
    </g>
    <g
       id="g3244"
       transform="matrix(1.3069307,0,0,1.3069996,111.1493,9.8355529)"
       inkscape:export-filename="/home/karlisson/titulo.png"
       inkscape:export-xdpi="90.070015"
       inkscape:export-ydpi="90.070015">
      <path
         sodipodi:type="arc"
         style="fill:#ffffff;fill-opacity:1;fill-rule:evenodd;stroke:none"
         id="path4325"
         sodipodi:cx="193"
         sodipodi:cy="253.36218"
         sodipodi:rx="68"
         sodipodi:ry="68"
         d="m 261,253.36218 c 0,37.55537 -30.44464,68 -68,68 -37.55536,0 -68,-30.44463 -68,-68 0,-37.55536 30.44464,-68 68,-68 37.55536,0 68,30.44464 68,68 z"
         transform="matrix(0.95407813,0,0,0.95406464,12.159662,17.738104)"
         inkscape:export-filename="/home/karlisson/titulo.png"
         inkscape:export-xdpi="90.070015"
         inkscape:export-ydpi="90.070015" />
      <path
         sodipodi:nodetypes="ccssssssssssssssssssssssssssscsssss"
         inkscape:connector-curvature="0"
         inkscape:export-ydpi="90.070015"
         inkscape:export-xdpi="90.070015"
         inkscape:export-filename="/home/karlisson/titulo.png"
         id="path4304"
         d="m 185.52536,177.90792 c -0.46932,0.0187 -0.98062,0.0778 -1.50298,0.15656 -8.35771,1.2597 -7.38114,8.15303 -15.249,11.24089 -7.86786,3.08786 -11.86643,-2.60067 -18.8499,2.16051 -6.98346,4.76118 -3.11242,10.52468 -8.86133,16.72043 -5.74891,6.19576 -11.83705,2.79403 -16.06312,10.11368 -4.22606,7.31965 1.77113,10.86706 -0.72018,18.94356 -2.4913,8.0765 -9.45088,7.63453 -10.0825,16.0629 -0.63162,8.42836 6.31781,9.02038 7.57753,17.37798 1.25972,8.35759 -5.18582,10.98188 -2.09791,18.84963 3.08791,7.86775 9.57971,5.38475 14.34095,12.36811 4.76125,6.98337 0.0979,12.16146 6.29374,17.91028 6.19584,5.74883 10.99784,0.68993 18.31759,4.91594 7.31975,4.226 5.32498,10.91013 13.40159,13.4014 8.07661,2.49127 10.20223,-4.13852 18.63071,-3.50691 8.42849,0.63161 9.55283,7.49073 17.91054,6.23102 8.35771,-1.2597 7.38114,-8.15303 15.249,-11.24089 7.86786,-3.08786 11.86643,2.63199 18.8499,-2.12919 6.98346,-4.76118 3.11242,-10.556 8.86133,-16.75175 5.74891,-6.19576 11.83705,-2.79403 16.06312,-10.11368 4.22606,-7.31964 -1.77113,-10.86706 0.72018,-18.94356 2.4913,-8.0765 9.45088,-7.63453 10.0825,-16.06289 0.63162,-8.42837 -6.31781,-9.02039 -7.57753,-17.37799 -1.25972,-8.35759 5.18582,-10.98188 2.09791,-18.84963 -3.08791,-7.86775 -9.57971,-5.38475 -14.34095,-12.36811 -4.76125,-6.98337 -0.0979,-12.16146 -6.29374,-17.91028 -6.19584,-5.74883 -10.99784,-0.68993 -18.31759,-4.91594 -7.31975,-4.226 -5.32498,-10.87882 -13.40159,-13.37008 -8.07661,-2.49127 -10.20223,4.10721 -18.63071,3.47559 -7.90171,-0.59214 -9.36771,-6.66868 -16.40756,-6.38758 z m 10.77138,10.18276 c 39.42494,0 71.38517,31.95978 71.38517,71.38417 0,39.42438 -31.96023,71.38416 -71.38517,71.38416 -39.42495,0 -71.38518,-31.95978 -71.38518,-71.38416 0,-39.42439 31.96023,-71.38417 71.38518,-71.38417 z"
         style="fill:#ffffff;fill-rule:evenodd;stroke:none" />
      <path
         inkscape:export-ydpi="90.070015"
         inkscape:export-xdpi="90.070015"
         inkscape:export-filename="/home/karlisson/titulo.png"
         inkscape:connector-curvature="0"
         id="path4302"
         d="m 196.27991,189.84412 c -38.45396,0 -69.62463,31.17122 -69.62463,69.62463 0,38.45341 31.17067,69.62463 69.62463,69.62463 38.45396,0 69.65856,-31.17122 69.65856,-69.62463 0,-38.45341 -31.2046,-69.62463 -69.65856,-69.62463 z m 0,2.17153 c 37.25467,0 67.48704,30.19895 67.48704,67.4531 0,37.25415 -30.23237,67.4531 -67.48704,67.4531 -37.25467,0 -67.45311,-30.19895 -67.45311,-67.4531 0,-37.25415 30.19844,-67.4531 67.45311,-67.4531 z"
         style="fill:#ffffff;fill-rule:evenodd;stroke:none" />
      <g
         inkscape:export-ydpi="90.070015"
         inkscape:export-xdpi="90.070015"
         inkscape:export-filename="/home/karlisson/titulo.png"
         id="g3005"
         transform="matrix(0.42218042,0,0,0.42217446,84.192019,168.06721)"
         style="stroke:none">
        <path
           inkscape:export-ydpi="90"
           inkscape:export-xdpi="90"
           inkscape:export-filename="/home/karlisson/dev/pythoncampus/img/bg-panel.png"
           sodipodi:nodetypes="cccccccccccccc"
           id="path3007-6"
           d="m 316.14768,180.35658 c 25.12005,-1.16264 58.31894,28.24879 26.85919,61.27287 -30.41478,28.09969 -69.69178,17.04108 -91.80682,3.2566 16.04044,31.439 71.25239,23.39323 75.76901,57.96493 2.14797,34.27562 -28.9455,51.30709 -83.41815,41.00068 -9.71185,-3.35927 -38.74074,3.58775 -54.84252,-20.69833 -52.10697,-3.9389 -39.25738,-66.89184 -19.73499,-72.36021 -9.77324,16.60103 -0.71392,37.35794 10.05237,38.87197 3.66032,2.40229 20.22572,-18.09475 38.30329,10.36263 19.31906,-9.86662 27.1489,-0.72299 37.63922,2.29049 -56.18177,-22.83366 -96.02627,-87.36752 -15.99148,-115.41704 -8.36904,-25.47122 7.0519,-77.08762 38.20429,-41.51469 11.64549,-44.34948 43.17896,15.81458 38.96659,34.97014 z"
           style="fill:#324562;fill-opacity:1;fill-rule:evenodd;stroke:none"
           inkscape:connector-curvature="0" />
        <path
           inkscape:export-ydpi="90"
           inkscape:export-xdpi="90"
           inkscape:export-filename="/home/karlisson/dev/pythoncampus/img/bg-panel.png"
           sodipodi:type="arc"
           style="fill:#ffffff;fill-rule:evenodd;stroke:none"
           id="path3009"
           sodipodi:cx="519.51715"
           sodipodi:cy="187.36868"
           sodipodi:rx="3.1164737"
           sodipodi:ry="4.5263071"
           d="m 522.63362,187.36868 c 0,2.49981 -1.39529,4.52631 -3.11647,4.52631 -1.72118,0 -3.11647,-2.0265 -3.11647,-4.52631 0,-2.49981 1.39529,-4.5263 3.11647,-4.5263 1.72118,0 3.11647,2.02649 3.11647,4.5263 z"
           transform="matrix(-4.4419558,0.57610449,0.57267834,4.4155391,2496.4491,-963.96127)" />
        <path
           inkscape:export-ydpi="90"
           inkscape:export-xdpi="90"
           inkscape:export-filename="/home/karlisson/dev/pythoncampus/img/bg-panel.png"
           transform="matrix(-4.4258225,0.57401207,0.57267834,4.4155391,2460.4956,-959.29824)"
           d="m 522.63362,187.36868 c 0,2.49981 -1.39529,4.52631 -3.11647,4.52631 -1.72118,0 -3.11647,-2.0265 -3.11647,-4.52631 0,-2.49981 1.39529,-4.5263 3.11647,-4.5263 1.72118,0 3.11647,2.02649 3.11647,4.5263 z"
           sodipodi:ry="4.5263071"
           sodipodi:rx="3.1164737"
           sodipodi:cy="187.36868"
           sodipodi:cx="519.51715"
           id="path3011"
           style="fill:#ffffff;fill-rule:evenodd;stroke:none"
           sodipodi:type="arc" />
        <path
           inkscape:export-ydpi="90"
           inkscape:export-xdpi="90"
           inkscape:export-filename="/home/karlisson/dev/pythoncampus/img/bg-panel.png"
           sodipodi:type="arc"
           style="fill:#324562;fill-opacity:1;fill-rule:evenodd;stroke:none"
           id="path3013"
           sodipodi:cx="519.51715"
           sodipodi:cy="187.36868"
           sodipodi:rx="3.1164737"
           sodipodi:ry="4.5263071"
           d="m 522.63362,187.36868 c 0,2.49981 -1.39529,4.52631 -3.11647,4.52631 -1.72118,0 -3.11647,-2.0265 -3.11647,-4.52631 0,-2.49981 1.39529,-4.5263 3.11647,-4.5263 1.72118,0 3.11647,2.02649 3.11647,4.5263 z"
           transform="matrix(-2.4973324,0.32389436,0.31018308,2.3916139,1500.3903,-448.81069)" />
        <path
           inkscape:export-ydpi="90"
           inkscape:export-xdpi="90"
           inkscape:export-filename="/home/karlisson/dev/pythoncampus/img/bg-panel.png"
           transform="matrix(-2.4973324,0.32389436,0.31018308,2.3916139,1529.5328,-452.59037)"
           d="m 522.63362,187.36868 c 0,2.49981 -1.39529,4.52631 -3.11647,4.52631 -1.72118,0 -3.11647,-2.0265 -3.11647,-4.52631 0,-2.49981 1.39529,-4.5263 3.11647,-4.5263 1.72118,0 3.11647,2.02649 3.11647,4.5263 z"
           sodipodi:ry="4.5263071"
           sodipodi:rx="3.1164737"
           sodipodi:cy="187.36868"
           sodipodi:cx="519.51715"
           id="path3015"
           style="fill:#324562;fill-opacity:1;fill-rule:evenodd;stroke:none"
           sodipodi:type="arc" />
        <path
           inkscape:export-ydpi="90"
           inkscape:export-xdpi="90"
           inkscape:export-filename="/home/karlisson/dev/pythoncampus/img/bg-panel.png"
           transform="matrix(-1.5971453,0.20714358,0.14567996,1.1232406,1109.2448,-110.48991)"
           d="m 522.63362,187.36868 c 0,2.49981 -1.39529,4.52631 -3.11647,4.52631 -1.72118,0 -3.11647,-2.0265 -3.11647,-4.52631 0,-2.49981 1.39529,-4.5263 3.11647,-4.5263 1.72118,0 3.11647,2.02649 3.11647,4.5263 z"
           sodipodi:ry="4.5263071"
           sodipodi:rx="3.1164737"
           sodipodi:cy="187.36868"
           sodipodi:cx="519.51715"
           id="path3017"
           style="fill:#ffffff;fill-opacity:1;fill-rule:evenodd;stroke:none"
           sodipodi:type="arc" />
        <path
           inkscape:export-ydpi="90"
           inkscape:export-xdpi="90"
           inkscape:export-filename="/home/karlisson/dev/pythoncampus/img/bg-panel.png"
           style="fill:#ffffff;fill-opacity:1;fill-rule:evenodd;stroke:none;display:inline"
           d="m 328.18516,236.87272 c -28.31272,-1.83918 -66.97601,-6.96243 -77.81578,-19.80309 15.55379,31.2127 46.93715,37.03288 77.81578,19.80309 z"
           id="path3019"
           sodipodi:nodetypes="ccc"
           inkscape:connector-curvature="0" />
        <path
           inkscape:export-ydpi="90"
           inkscape:export-xdpi="90"
           inkscape:export-filename="/home/karlisson/dev/pythoncampus/img/bg-panel.png"
           sodipodi:nodetypes="cccccc"
           inkscape:connector-curvature="0"
           id="path3021"
           d="m 289.65942,114.67714 c -27.55817,-4.36778 -67.00986,16.35345 -71.80344,41.83226 l 14.88793,27.84286 c -7.38449,-8.71179 2.46009,-79.47732 42.10431,-48.759 5.20559,-12.064 11.77029,-16.7535 19.17821,-9.36781 z"
           style="fill:#324562;fill-opacity:1;stroke:none" />
        <path
           inkscape:export-ydpi="90"
           inkscape:export-xdpi="90"
           inkscape:export-filename="/home/karlisson/dev/pythoncampus/img/bg-panel.png"
           sodipodi:nodetypes="ccccccccc"
           inkscape:connector-curvature="0"
           id="path3023"
           d="m 248.51447,86.534641 113.40679,17.106159 -56.34564,34.15223 -3.54816,-4.57427 -8.67643,-23.49201 c -31.20337,-5.81148 -76.78709,16.90819 -80.90846,47.9388 l 9.27469,17.02835 -77.31759,0.81091 z"
           style="fill:#324562;fill-opacity:1;stroke:none" />
        <path
           inkscape:export-ydpi="90"
           inkscape:export-xdpi="90"
           inkscape:export-filename="/home/karlisson/dev/pythoncampus/img/bg-panel.png"
           sodipodi:nodetypes="cccccc"
           inkscape:connector-curvature="0"
           id="path3025"
           d="m 175.2947,179.17098 9.90636,-0.0548 c 6.48674,27.51478 -16.58162,46.33826 -28.81821,45.63597 6.51447,-4.68517 12.57194,-12.62724 14.54097,-18.54154 -7.60472,4.77923 -15.18182,5.67191 -22.13539,4.89817 12.65986,-2.96165 23.866,-18.17316 26.50627,-31.93775 z"
           style="fill:#324562;fill-opacity:1;stroke:none" />
        <path
           transform="matrix(-1.0593912,0.13739895,0.1315825,1.0145445,788.65524,-98.290725)"
           d="m 522.63362,187.36868 c 0,2.49981 -1.39529,4.52631 -3.11647,4.52631 -1.72118,0 -3.11647,-2.0265 -3.11647,-4.52631 0,-2.49981 1.39529,-4.5263 3.11647,-4.5263 1.72118,0 3.11647,2.02649 3.11647,4.5263 z"
           sodipodi:ry="4.5263071"
           sodipodi:rx="3.1164737"
           sodipodi:cy="187.36868"
           sodipodi:cx="519.51715"
           id="path3027"
           style="fill:#ffffff;fill-opacity:1;fill-rule:evenodd;stroke:none"
           sodipodi:type="arc"
           inkscape:export-filename="/home/karlisson/dev/pythoncampus/img/bg-panel.png"
           inkscape:export-xdpi="90"
           inkscape:export-ydpi="90" />
        <path
           sodipodi:type="arc"
           style="fill:#ffffff;fill-opacity:1;fill-rule:evenodd;stroke:none"
           id="path3031"
           sodipodi:cx="519.51715"
           sodipodi:cy="187.36868"
           sodipodi:rx="3.1164737"
           sodipodi:ry="4.5263071"
           d="m 522.63362,187.36868 c 0,2.49981 -1.39529,4.52631 -3.11647,4.52631 -1.72118,0 -3.11647,-2.0265 -3.11647,-4.52631 0,-2.49981 1.39529,-4.5263 3.11647,-4.5263 1.72118,0 3.11647,2.02649 3.11647,4.5263 z"
           transform="matrix(-1.5971453,0.20714358,0.14567996,1.1232406,1139.1735,-114.76544)"
           inkscape:export-filename="/home/karlisson/dev/pythoncampus/img/bg-panel.png"
           inkscape:export-xdpi="90"
           inkscape:export-ydpi="90" />
        <path
           inkscape:export-ydpi="90"
           inkscape:export-xdpi="90"
           inkscape:export-filename="/home/karlisson/dev/pythoncampus/img/bg-panel.png"
           sodipodi:type="arc"
           style="fill:#ffffff;fill-opacity:1;fill-rule:evenodd;stroke:none"
           id="path3049"
           sodipodi:cx="519.51715"
           sodipodi:cy="187.36868"
           sodipodi:rx="3.1164737"
           sodipodi:ry="4.5263071"
           d="m 522.63362,187.36868 c 0,2.49981 -1.39529,4.52631 -3.11647,4.52631 -1.72118,0 -3.11647,-2.0265 -3.11647,-4.52631 0,-2.49981 1.39529,-4.5263 3.11647,-4.5263 1.72118,0 3.11647,2.02649 3.11647,4.5263 z"
           transform="matrix(-1.0593912,0.13739895,0.1315825,1.0145445,817.17684,-103.21138)" />
        <path
           sodipodi:nodetypes="ccccccccccccccccccccccccccccc"
           inkscape:connector-curvature="0"
           id="path4108"
           transform="matrix(2.5028125,0,0,2.5028478,-231.21548,-399.26792)"
           d="m 191.40625,258.9375 c 1.03111,2.74427 2.39558,4.88577 3.9375,6.59375 l 3.875,0 c -2.81511,-1.55046 -5.51597,-3.59662 -7.8125,-6.59375 z m 5.53125,8.15625 c 2.15021,1.88796 4.53631,3.18104 6.875,4.3125 l 9.75,0.0312 c -3.22981,-1.52791 -7.04834,-2.62671 -10.875,-4.25 z M 207.125,273 c 3.01152,1.46638 5.6787,3.02596 7.21875,5.78125 l 6.53125,0.0312 c -0.87963,-2.52304 -2.3761,-4.28887 -4.28125,-5.65625 z m 7.875,7.40625 c 0.68666,2.41261 0.002,4.91918 -1.59375,7.25 l 7.03125,0.0312 c 1.01937,-2.22544 1.39327,-4.65257 0.90625,-7.15625 z m -2.78125,8.8125 c -1.60663,1.80955 -3.74687,3.41559 -6.125,4.6875 l 9.0625,0.0312 c 1.78722,-1.30883 3.2784,-2.86456 4.375,-4.59375 l -7.3125,-0.125 z m -9.46875,6.1875 c -2.84304,1.01928 -5.85206,1.51719 -8.65625,1.21875 6.17683,0.68935 11.69913,0.80997 18.40625,-1.03125 z"
           style="fill:#ffffff;fill-opacity:1;stroke:none" />
      </g>
    </g>
  </g>
</svg>
